<svg xmlns="http://www.w3.org/2000/svg" viewBox="0 0 586.9991455078125 517.0938720703125">
       <g transform="translate(-218.43515014648438, -253.44851684570312)">
         

<path d="M0 0 C3.14 0.02 6.28 0 9.42 -0.03 C11.44 -0.02 13.45 -0.02 15.46 -0.01 C16.4 -0.02 17.33 -0.03 18.29 -0.03 C24.96 0.06 28.63 1.55 33.46 6.35 C35.87 10.86 35.18 16.26 35.18 21.26 C35.18 23.32 35.24 25.38 35.29 27.44 C35.34 38.58 35.34 38.58 31.83 42.85 C27.02 47.51 22.57 47.79 16.05 47.76 C14.33 47.78 12.61 47.79 10.89 47.81 C8.2 47.82 5.51 47.83 2.82 47.83 C-17.75 47.81 -17.75 47.81 -26.19 55.08 C-33.69 62.87 -33.82 72.51 -33.76 82.77 C-33.77 84.77 -33.78 86.77 -33.79 88.77 C-33.8 90.9 -33.79 93.04 -33.79 95.17 C-33.78 99.64 -33.8 104.11 -33.82 108.58 C-33.86 118.08 -33.87 127.58 -33.88 137.08 C-33.89 147.32 -33.91 157.56 -33.95 167.79 C-33.97 171.5 -33.97 175.21 -33.97 178.92 C-33.91 216.41 -33.91 216.41 -41.13 230.46 C-41.48 231.17 -41.83 231.88 -42.19 232.6 C-44.98 238.11 -48.26 242.91 -52.38 247.52 C-52.65 247.85 -52.65 247.85 -54.01 249.51 C-56.56 252.6 -58.99 255.3 -62.38 257.52 C-60.8 261.45 -58.25 263.72 -55.19 266.58 C-41.77 279.6 -34.54 296.83 -34.01 315.5 C-33.99 317.98 -34 320.45 -34.01 322.93 C-34.01 324.31 -34 325.68 -34 327.06 C-33.99 330 -33.99 332.93 -34 335.87 C-34.01 340.52 -34 345.17 -33.98 349.82 C-33.95 361.35 -33.94 372.89 -33.94 384.43 C-33.94 393.42 -33.94 402.41 -33.9 411.4 C-33.89 416.02 -33.89 420.64 -33.9 425.25 C-33.91 428.12 -33.9 431 -33.88 433.87 C-33.88 435.82 -33.89 437.78 -33.91 439.73 C-33.84 448.28 -32.72 453.66 -27 460.27 C-19.41 466.78 -12.58 468.8 -2.78 468.83 C-1.14 468.86 0.5 468.88 2.14 468.91 C4.7 468.94 7.26 468.96 9.82 468.98 C12.31 469 14.8 469.04 17.28 469.08 C17.66 469.08 17.66 469.08 19.59 469.08 C25.66 469.19 28.64 470.57 32.9 474.77 C35.07 478.24 35.15 480.5 35.19 484.58 C35.19 485.25 35.2 485.91 35.21 486.6 C35.21 488 35.21 489.41 35.2 490.81 C35.18 492.95 35.22 495.08 35.25 497.22 C35.32 508.6 35.32 508.6 32.33 512.37 C28.56 515.36 25.94 516.76 21.11 516.83 C20.22 516.84 19.33 516.86 18.41 516.88 C17.45 516.88 16.5 516.89 15.51 516.89 C14.51 516.9 13.51 516.91 12.48 516.92 C10.36 516.93 8.24 516.94 6.12 516.95 C2.92 516.96 -0.27 517.01 -3.46 517.06 C-24.31 517.22 -41.3 512.4 -57.38 498.52 C-57.71 498.24 -57.71 498.24 -59.4 496.79 C-70.95 486.11 -80.79 468.67 -81.51 452.69 C-81.51 451.65 -81.51 450.6 -81.51 449.53 C-81.52 448.32 -81.52 447.12 -81.52 445.88 C-81.52 444.57 -81.52 443.26 -81.52 441.91 C-81.52 440.51 -81.53 439.11 -81.53 437.7 C-81.54 434.69 -81.55 431.68 -81.55 428.66 C-81.55 423.89 -81.57 419.11 -81.59 414.33 C-81.6 412.7 -81.6 411.06 -81.61 409.42 C-81.61 408.6 -81.62 407.78 -81.62 406.94 C-81.66 395.82 -81.69 384.71 -81.71 373.6 C-81.71 366.1 -81.74 358.6 -81.78 351.09 C-81.79 347.13 -81.81 343.16 -81.8 339.2 C-81.8 335.47 -81.81 331.73 -81.84 328 C-81.85 325.99 -81.84 323.98 -81.83 321.97 C-81.95 310.66 -84.44 300.88 -92.38 292.52 C-102.47 283.14 -113.31 283.07 -126.53 283.09 C-141.05 283.06 -141.05 283.06 -146.38 278.52 C-151.52 272.32 -150.98 265.75 -150.88 257.96 C-150.9 256.75 -150.91 255.55 -150.93 254.3 C-150.88 243.03 -150.88 243.03 -146.38 238.52 C-139.92 233.16 -132.62 233.98 -124.57 234.02 C-112.17 234.06 -101.12 233.13 -91.83 223.99 C-85.18 216.71 -82.25 209.38 -82.26 199.52 C-82.25 198.32 -82.25 197.12 -82.25 195.88 C-82.25 194.56 -82.25 193.25 -82.25 191.9 C-82.25 190.49 -82.25 189.09 -82.25 187.69 C-82.24 184.67 -82.24 181.65 -82.24 178.63 C-82.24 173.84 -82.23 169.05 -82.21 164.26 C-82.21 163.45 -82.21 162.64 -82.2 161.81 C-82.2 160.15 -82.19 158.49 -82.19 156.84 C-82.15 145.69 -82.13 134.55 -82.13 123.4 C-82.13 115.88 -82.11 108.36 -82.08 100.83 C-82.06 96.86 -82.05 92.89 -82.06 88.91 C-82.14 62.67 -79.48 40.69 -60.23 21.21 C-42.72 4.7 -23.36 -0.19 0 0 Z " fill="#060506" transform="translate(369.3798828125,253.478515625)" style="fill:#060506;" id="__0_"/>
<path d="M0 0 C0.97 -0 1.93 -0.01 2.93 -0.01 C4.97 -0.01 7.01 -0.01 9.05 0.01 C12.15 0.02 15.24 0.01 18.34 -0.01 C20.33 -0.01 22.32 -0.01 24.31 0 C25.22 -0.01 26.14 -0.01 27.08 -0.02 C42.64 0.15 59.03 6.68 71.05 16.4 C71.43 16.69 71.43 16.69 73.35 18.16 C87.01 29.36 95.49 46.24 97.79 63.59 C98.74 73.62 98.44 83.77 98.4 93.84 C98.39 98.46 98.4 103.09 98.41 107.71 C98.44 120.02 98.44 132.33 98.42 144.64 C98.41 152.76 98.41 160.87 98.44 168.99 C98.45 173.57 98.45 178.16 98.42 182.75 C98.41 185.61 98.42 188.47 98.44 191.33 C98.44 193.27 98.42 195.2 98.4 197.14 C98.5 207.26 100.78 216.06 107.62 223.77 C117.56 232.65 127.53 234.2 140.3 233.9 C156.75 233.51 156.75 233.51 162.66 238.81 C167.5 244.33 166.38 250.21 166.37 257.21 C166.38 258.48 166.4 259.75 166.42 261.06 C166.42 262.29 166.42 263.53 166.42 264.79 C166.42 265.92 166.42 267.04 166.43 268.19 C165.86 273.12 164.18 276.36 160.55 279.71 C156.49 282.45 153.35 282.53 148.55 282.57 C147.25 282.6 145.95 282.62 144.62 282.65 C142.56 282.68 140.51 282.71 138.46 282.72 C126.48 282.82 115.81 284.57 107.05 293.4 C102.06 300.21 98.81 306.96 98.8 315.51 C98.79 316.72 98.78 317.92 98.78 319.16 C98.78 320.47 98.78 321.78 98.78 323.12 C98.78 324.53 98.77 325.93 98.77 327.33 C98.76 330.34 98.75 333.35 98.75 336.36 C98.75 341.14 98.73 345.91 98.71 350.68 C98.66 362.53 98.63 374.39 98.61 386.24 C98.59 395.45 98.57 404.66 98.52 413.87 C98.5 418.6 98.49 423.33 98.5 428.07 C98.5 431.03 98.48 433.98 98.46 436.94 C98.46 438.95 98.46 440.95 98.47 442.96 C98.31 463.45 89.34 481.93 75.14 496.54 C58.15 512.97 36.68 516.95 13.96 516.84 C11.03 516.84 8.11 516.87 5.18 516.9 C3.31 516.9 1.43 516.9 -0.45 516.89 C-1.31 516.91 -2.18 516.92 -3.07 516.93 C-8.49 516.87 -11.72 516.11 -15.95 512.4 C-20.21 507.04 -19.47 501.09 -19.45 494.53 C-19.45 492.47 -19.49 490.41 -19.53 488.35 C-19.55 477.23 -19.55 477.23 -16.66 473.58 C-11.58 469.5 -7.89 469.14 -1.45 469.2 C0.26 469.18 1.97 469.17 3.68 469.16 C6.36 469.15 9.03 469.15 11.71 469.17 C23.55 469.24 33.2 468.94 42.74 461 C50.01 453.21 50.63 443.96 50.55 433.84 C50.56 432.49 50.56 431.14 50.57 429.79 C50.58 426.91 50.58 424.02 50.57 421.13 C50.56 416.55 50.57 411.97 50.59 407.4 C50.62 398.49 50.62 389.59 50.62 380.69 C50.62 369.37 50.63 358.06 50.67 346.75 C50.68 342.21 50.68 337.67 50.67 333.13 C50.66 330.29 50.67 327.45 50.68 324.61 C50.69 322.69 50.67 320.78 50.66 318.86 C50.78 298.62 57.42 279.88 71.8 265.4 C72.88 264.39 73.96 263.39 75.05 262.4 C76.04 261.42 77.02 260.45 77.99 259.46 C78.67 258.78 79.35 258.1 80.05 257.4 C79.49 257.17 78.93 256.94 78.35 256.7 C65.69 249.53 56.83 231.72 53.05 218.4 C51.22 209.74 50.77 201.36 50.82 192.53 C50.81 191.18 50.81 189.84 50.81 188.49 C50.8 185.62 50.81 182.75 50.81 179.88 C50.82 175.33 50.81 170.78 50.79 166.23 C50.76 153.31 50.74 140.38 50.75 127.45 C50.76 120.29 50.74 113.14 50.71 105.98 C50.69 101.46 50.7 96.95 50.72 92.44 C50.72 89.62 50.71 86.81 50.69 83.99 C50.68 82.08 50.7 80.18 50.72 78.27 C50.61 68.52 48.33 61.38 41.3 54.46 C31.94 46.17 18.44 47.95 6.82 47.96 C4.35 47.96 1.89 47.93 -0.58 47.9 C-1.33 47.91 -2.08 47.92 -2.86 47.93 C-8.96 47.84 -12.26 45.72 -16.76 41.84 C-20.62 37.16 -19.22 29.27 -19.26 23.59 C-19.29 22.31 -19.32 21.04 -19.35 19.73 C-19.42 9.25 -19.42 9.25 -17.24 5.7 C-11.79 0.23 -7.4 -0.05 0 0 Z " fill="#060506" transform="translate(638.9453125,253.6015625)" style="fill:#060506;" id="__0_"/>
<path d="M0 0 C0.97 -0.01 1.93 -0.01 2.93 -0.02 C6.14 -0.04 9.35 -0.05 12.56 -0.06 C13.66 -0.07 14.75 -0.07 15.88 -0.07 C21.68 -0.09 27.48 -0.11 33.27 -0.12 C39.26 -0.13 45.25 -0.16 51.25 -0.2 C55.85 -0.23 60.45 -0.24 65.05 -0.24 C67.26 -0.25 69.47 -0.26 71.68 -0.28 C74.77 -0.3 77.86 -0.3 80.96 -0.29 C81.87 -0.31 82.78 -0.32 83.72 -0.33 C89.24 -0.29 92.46 0.44 96.8 4.18 C98.83 7.22 99.05 7.79 99.06 11.2 C99.06 12.02 99.07 12.85 99.07 13.69 C99.07 14.6 99.07 15.5 99.06 16.43 C99.07 17.39 99.07 18.35 99.07 19.33 C99.08 22.56 99.08 25.79 99.08 29.02 C99.08 31.33 99.09 33.64 99.09 35.95 C99.11 42.24 99.11 48.52 99.1 54.81 C99.1 60.06 99.11 65.32 99.11 70.57 C99.12 83.68 99.12 96.8 99.12 109.91 C99.11 121.27 99.12 132.63 99.14 143.99 C99.16 155.67 99.17 167.35 99.17 179.03 C99.16 185.58 99.17 192.13 99.18 198.69 C99.19 204.86 99.19 211.03 99.18 217.21 C99.18 219.46 99.18 221.72 99.19 223.97 C99.29 254.78 92.44 281.86 70.53 304.48 C57.27 317.53 41.69 325.5 23.8 330.18 C23.11 330.36 22.43 330.55 21.72 330.74 C15.64 332.27 9.81 332.49 3.55 332.43 C2.53 332.42 1.52 332.41 0.47 332.4 C-25.44 332.03 -47.3 322.34 -65.99 304.52 C-82.99 286.65 -91.29 265.17 -91.69 240.52 C-90.96 235.6 -88.98 232.51 -85 229.53 C-79.96 227.09 -74.4 227.7 -68.91 227.73 C-66.77 227.74 -64.64 227.71 -62.5 227.68 C-61.13 227.68 -59.76 227.68 -58.39 227.68 C-57.15 227.68 -55.92 227.68 -54.65 227.68 C-50.54 228.27 -48.4 229.59 -45.2 232.18 C-42.85 235.7 -42.74 238.53 -42.39 242.61 C-40.87 256.36 -35.66 265.96 -25.07 274.99 C-14.82 282.53 -2.64 284.46 9.8 283.18 C21.95 280.76 33.12 275.09 40.8 265.18 C43.08 261.29 45.01 257.31 46.8 253.18 C47.17 252.38 47.53 251.58 47.9 250.75 C49.91 245 49.95 239 49.96 232.97 C49.97 232.17 49.97 231.37 49.98 230.55 C49.99 227.89 50 225.23 50.01 222.57 C50.02 220.66 50.03 218.75 50.04 216.84 C50.06 211.66 50.09 206.47 50.11 201.29 C50.13 195.87 50.15 190.46 50.18 185.04 C50.23 174.78 50.28 164.52 50.32 154.27 C50.37 142.59 50.42 130.91 50.48 119.23 C50.59 95.21 50.7 71.2 50.8 47.18 C50.06 47.19 49.32 47.2 48.56 47.21 C41.57 47.31 34.58 47.39 27.59 47.44 C24 47.46 20.41 47.5 16.81 47.55 C13.35 47.61 9.88 47.64 6.41 47.65 C4.44 47.67 2.48 47.7 0.52 47.74 C-9.42 47.75 -9.42 47.75 -12.49 44.77 C-16.33 38.94 -15.5 32.57 -15.55 25.77 C-15.56 24.17 -15.59 22.57 -15.63 20.97 C-15.69 18.66 -15.71 16.35 -15.72 14.03 C-15.74 13.32 -15.77 12.61 -15.79 11.88 C-15.77 7.89 -15.34 6.34 -12.73 3.25 C-11.89 2.56 -11.06 1.88 -10.2 1.18 C-8.04 -0.98 -3 0.01 0 0 Z " fill="#050405" transform="translate(507.197998046875,345.822998046875)" style="fill:#060506;" id="__0_"/>

       </g>
     </svg>
